<?xml version="1.0" encoding="utf-8"?>
<!-- Generator: Adobe Illustrator 28.3.0, SVG Export Plug-In . SVG Version: 6.00 Build 0)  -->
<svg version="1.1" id="Layer_1" xmlns="http://www.w3.org/2000/svg" xmlns:xlink="http://www.w3.org/1999/xlink" x="0px" y="0px"
	 viewBox="0 0 1146.7 207.9" style="enable-background:new 0 0 1146.7 207.9;" xml:space="preserve">
<style type="text/css">
	.st0{fill:#444444;}
</style>
<g>
	<path class="st0" d="M228.3,50.6C228.3,50.6,228.3,50.6,228.3,50.6c-0.1,0-0.1,0-0.2,0h0c-5,0.1-9.3,3.3-10.9,7.8h-0.1l-18.8,57.4
		l-19.2-56.9c0,0,0,0,0,0l-0.2-0.5h0c-1.6-4.5-5.9-7.7-10.9-7.8l-0.1,0c0,0-0.1,0-0.1,0c0,0-0.1,0-0.1,0h-6.3c0,0-0.1,0-0.1,0
		c0,0-0.1,0-0.1,0h-0.1v0c-5,0.1-9.2,3.3-10.8,7.8h0l-0.1,0.3c0,0.1-0.1,0.2-0.1,0.3l-19.4,56.8L112.7,59c-1.4-4.8-5.9-8.4-11.2-8.4
		h0c0,0-0.1,0-0.1,0s-0.1,0-0.1,0H77.5l37.9,107.6H142l22.4-65.8l22.4,65.8h26.3l38.1-107.6H228.3L228.3,50.6z"/>
	<path class="st0" d="M283.9,0.9c-10.2,0-18.5,8.5-18.5,18.5c0,10,8.3,18.5,18.5,18.5c10.2,0,18.5-8.5,18.5-18.5
		C302.4,9.4,294.2,0.9,283.9,0.9z"/>
	<path class="st0" d="M268,160.4c0,11.5-5.4,18.5-15.2,18.5h-9.9V207c0,0,16.6,0,16.7,0c24.6,0,40.3-15.9,40.3-44.9V50.6H268V160.4
		L268,160.4z"/>
	<path class="st0" d="M373.9,29.9h15V1.8c0,0-10.4,0-21.7,0c-24.6,0-40.3,15.9-40.3,44.9v111.5h31.8V76.6h27.8V50.5h-27.8v-2.1
		C358.6,36.8,364.1,29.9,373.9,29.9L373.9,29.9z"/>
	<path class="st0" d="M32.7,68.2L32.7,68.2L32.7,68.2C32.7,68.2,32.7,68.2,32.7,68.2L32.7,68.2l-5.6-17.6H1.3v107.6h31.6v-43.8
		c0-21.1,10.5-34.4,28.1-34.3c1.6,0,5.3,0,6.2,0V50.6C53.2,50.6,38.4,55.8,32.7,68.2L32.7,68.2z"/>
	<path class="st0" d="M465.9,49.8c11.8,0,20.6,8.7,20.6,20s-8.9,20-20.6,20s-20.6-8.7-20.6-20S454.1,49.8,465.9,49.8z M465.9,79.6
		c5.2,0,9.5-4.3,9.5-9.8c0-5.5-4.3-9.8-9.5-9.8c-5.2,0-9.5,4.3-9.5,9.8C456.3,75.3,460.6,79.6,465.9,79.6z"/>
	<path class="st0" d="M492.4,88.9V34.9h11.2v21c2.7-3.9,7.3-6,12.3-6c10.2,0,18,8.6,18,20s-7.8,20-18,20c-5,0-9.6-1.8-12.3-5.9
		l-1.5,4.9L492.4,88.9L492.4,88.9z M512.9,60c-5.5,0-9.8,4.4-9.8,9.9c0,5.5,4.3,9.9,9.8,9.9c5.5,0,9.8-4.4,9.8-9.9
		C522.7,64.4,518.4,60,512.9,60z"/>
	<path class="st0" d="M577.1,79.8c-3.2,6.2-9.3,10.1-17.6,10.1c-11.9,0-20.2-8.2-20.2-20s8.5-20,19.7-20s19.4,8.4,19.4,20.3
		c0,1.3-0.1,2.3-0.2,2.8h-27.9c0.4,4.5,4.5,7.7,9.2,7.7c4.2,0,6.4-1.8,8.2-4.6L577.1,79.8L577.1,79.8z M567.4,65.6
		c-0.5-4.1-3.9-7-8.5-7c-4.5,0-8.1,3.4-8.5,7H567.4z"/>
	<path class="st0" d="M736.8,49.8c11.8,0,20.6,8.7,20.6,20s-8.9,20-20.6,20s-20.6-8.7-20.6-20S725,49.8,736.8,49.8z M736.8,79.6
		c5.2,0,9.5-4.3,9.5-9.8c0-5.5-4.3-9.8-9.5-9.8c-5.2,0-9.5,4.3-9.5,9.8C727.3,75.3,731.6,79.6,736.8,79.6z"/>
	<path class="st0" d="M783,49.8c11.8,0,20.6,8.7,20.6,20s-8.9,20-20.6,20s-20.6-8.7-20.6-20S771.2,49.8,783,49.8z M783,79.6
		c5.2,0,9.5-4.3,9.5-9.8c0-5.5-4.3-9.8-9.5-9.8c-5.2,0-9.5,4.3-9.5,9.8C773.4,75.3,777.8,79.6,783,79.6z"/>
	<path class="st0" d="M850,34.9v53.9h-9.6l-1.6-5.1c-2.6,3.9-7.3,6-12.3,6c-10.2,0-18-8.6-18-20c0-11.3,7.8-20,18-20
		c5,0,9.7,1.9,12.3,5.9V34.9L850,34.9L850,34.9z M829.5,79.7c5.5,0,9.8-4.4,9.8-9.9c0-5.5-4.3-9.9-9.8-9.9c-5.5,0-9.8,4.4-9.8,9.9
		C819.7,75.3,824,79.7,829.5,79.7z"/>
	<path class="st0" d="M882.6,46.3c-3.6,0-6.5-3-6.5-6.5c0-3.5,2.9-6.5,6.5-6.5c3.6,0,6.5,3,6.5,6.5
		C889.1,43.3,886.2,46.3,882.6,46.3z"/>
	<path class="st0" d="M914.4,49.8c11.8,0,20.6,8.7,20.6,20s-8.9,20-20.6,20s-20.6-8.7-20.6-20S902.6,49.8,914.4,49.8z M914.4,79.6
		c5.2,0,9.5-4.3,9.5-9.8c0-5.5-4.3-9.8-9.5-9.8c-5.2,0-9.5,4.3-9.5,9.8C904.8,75.3,909.1,79.6,914.4,79.6z"/>
	<path class="st0" d="M952.2,88.9H941V34.9h11.2v20.7c2.3-3.7,6.2-5.9,11.2-5.9c8.7,0,14,5.9,14,15.6v23.5h-11.2v-21
		c0-4.9-2.5-7.8-6.8-7.8s-7.2,3.3-7.2,8.6V88.9z"/>
	<path class="st0" d="M513.2,140.2c0,5.3-2.8,8.6-7.2,8.6c-4.3,0-6.9-2.9-6.9-7.9V120H488v23.5c0,9.6,5.3,15.6,14,15.6
		c5.1,0,8.9-2.2,11.2-5.9l1.6,4.9h9.7V120h-11.2L513.2,140.2L513.2,140.2z"/>
	<path class="st0" d="M554,119.1c-5.1,0-8.9,2.2-11.2,5.9l-1.6-4.9h-9.7v38.1h11.2v-20.2c0-5.3,2.8-8.6,7.2-8.6
		c4.3,0,6.8,2.9,6.8,7.9v20.9h11.2v-23.5C568.1,125,562.7,119.1,554,119.1L554,119.1z"/>
	<path class="st0" d="M786.5,119.1c-5.1,0-8.9,2.2-11.2,5.9l-1.6-4.9h-9.7v38.1h11.2v-20.2c0-5.3,2.8-8.6,7.2-8.6
		c4.3,0,6.8,2.9,6.8,7.9v20.9h11.2v-23.5C800.5,125,795.2,119.1,786.5,119.1L786.5,119.1z"/>
	<path class="st0" d="M1120.1,88.9h-11.2V50.8h9.7l1.6,4.9c2.3-3.7,6.2-5.9,11.2-5.9c8.7,0,14,5.9,14,15.6v23.5h-11.2V68
		c0-5-2.5-7.9-6.8-7.9s-7.2,3.2-7.2,8.6V88.9L1120.1,88.9z"/>
	<path class="st0" d="M1039,61.4c0,1.4,1.1,2.4,3.2,2.9l4.8,1.2c7.2,1.8,11,5.9,11,11.2c0,7.6-6.5,13-15.3,13
		c-7.5,0-13.6-3.5-16.1-9.3l9.1-5c1.4,3.2,4.2,5.2,7.1,5.2c2.4,0,4-1.1,4-2.9c0-1.3-1.2-2.3-3.5-2.9l-4.5-1.1
		c-7.2-1.7-10.9-5.7-10.9-11.7c0-7.2,6-12.3,14.7-12.3c6.5,0,12.7,3.5,15.1,8.9l-9.2,4.9c-1.2-2.9-3.7-4.7-6-4.7
		C1040.5,58.8,1039,59.9,1039,61.4L1039,61.4z"/>
	<path class="st0" d="M1082.8,49.8c11.8,0,20.6,8.7,20.6,20s-8.8,20-20.6,20s-20.6-8.7-20.6-20S1071.1,49.8,1082.8,49.8z
		 M1082.8,79.6c5.2,0,9.6-4.3,9.6-9.8c0-5.5-4.3-9.8-9.6-9.8s-9.6,4.3-9.6,9.8C1073.3,75.3,1077.6,79.6,1082.8,79.6z"/>
	<path class="st0" d="M461.7,119.1c11.8,0,20.6,8.7,20.6,20c0,11.3-8.9,20-20.6,20s-20.6-8.7-20.6-20
		C441.1,127.8,450,119.1,461.7,119.1z M461.7,148.9c5.2,0,9.5-4.3,9.5-9.8c0-5.5-4.3-9.8-9.5-9.8s-9.5,4.3-9.5,9.8
		C452.2,144.6,456.5,148.9,461.7,148.9z"/>
	<path class="st0" d="M663.2,120.1v38.1h-9.4l-1.6-5.1c-2.6,3.9-7.3,6-12.3,6c-10.2,0-18-8.6-18-20c0-11.3,7.8-20,18-20
		c5,0,9.7,1.9,12.3,5.9v-4.9H663.2z M642.8,148.9c5.5,0,9.8-4.4,9.8-9.9c0-5.5-4.3-9.9-9.8-9.9s-9.8,4.4-9.8,9.9
		C633,144.6,637.3,148.9,642.8,148.9z"/>
	<path class="st0" d="M705.5,115.6c-3.6,0-6.5-3-6.5-6.5c0-3.5,2.9-6.5,6.5-6.5s6.5,3,6.5,6.5C712,112.6,709.1,115.6,705.5,115.6z
		 M699.9,158.1v-38.1h11.2v38.1H699.9z"/>
	<path class="st0" d="M737.6,119.1c11.8,0,20.6,8.7,20.6,20c0,11.3-8.9,20-20.6,20s-20.6-8.7-20.6-20
		C716.9,127.8,725.8,119.1,737.6,119.1z M737.6,148.9c5.2,0,9.5-4.3,9.5-9.8c0-5.5-4.3-9.8-9.5-9.8c-5.2,0-9.5,4.3-9.5,9.8
		C728,144.6,732.3,148.9,737.6,148.9z"/>
	<path class="st0" d="M706.6,50.8C706.6,50.8,706.6,50.8,706.6,50.8C706.5,50.8,706.5,50.8,706.6,50.8L706.6,50.8
		c-1.9,0-3.4,1.2-3.9,2.8h0L696,73.8l-6.8-20.1c0,0,0,0,0,0l-0.1-0.2h0c-0.6-1.6-2.1-2.7-3.8-2.7h0c0,0,0,0,0,0c0,0,0,0,0,0H683
		c0,0,0,0,0,0c0,0,0,0,0,0h0c-1.8,0-3.3,1.2-3.8,2.8l0,0.1c0,0,0,0.1,0,0.1l-6.8,20.1l-6.4-20c-0.5-1.7-2.1-3-3.9-3c0,0,0,0,0,0
		c0,0,0,0,0,0h-8.4l13.4,38h9.4l7.9-23.2l7.9,23.2h9.3l13.5-38L706.6,50.8L706.6,50.8z"/>
	<path class="st0" d="M877,89.6c0,4.1-1.9,6.5-5.4,6.5h-3.5v9.9c0,0,5.9,0,5.9,0c8.7,0,14.2-5.6,14.2-15.9V50.8H877L877,89.6
		L877,89.6z"/>
	<path class="st0" d="M630.9,78.9h5.3v9.9c0,0-7.6,0-7.7,0c-8.7,0-14.2-5.6-14.2-15.9V39.6h11.2v11.2h9.8v9.2h-9.8v12.3
		C625.5,76.4,627.4,78.9,630.9,78.9L630.9,78.9z"/>
	<path class="st0" d="M433.8,112.7h5.3v-9.9c0,0-7.6,0-7.7,0c-8.7,0-14.2,5.6-14.2,15.9v39.4h11.2v-28.8h9.8V120h-9.8v-0.8
		C428.4,115.2,430.3,112.7,433.8,112.7L433.8,112.7z"/>
	<path class="st0" d="M430,57L430,57L430,57L430,57L430,57l-2-6.2h-9.1v38h11.1V73.4c0-7.5,3.7-12.2,9.9-12.1c0.6,0,1.9,0,2.2,0
		V50.8C437.2,50.8,432,52.7,430,57L430,57z"/>
	<path class="st0" d="M596,57L596,57L596,57L596,57L596,57l-2-6.2h-9.1v38h11.1V73.4c0-7.5,3.7-12.2,9.9-12.1c0.6,0,1.9,0,2.2,0
		V50.8C603.2,50.8,598,52.7,596,57L596,57z"/>
	<path class="st0" d="M615.5,104.2v53.9h-9.6l-1.6-5.1c-2.6,3.9-7.3,6-12.3,6c-10.2,0-18-8.6-18-20c0-11.3,7.8-20,18-20
		c5,0,9.7,1.9,12.3,5.9v-20.8L615.5,104.2L615.5,104.2z M594.9,148.9c5.5,0,9.8-4.4,9.8-9.9c0-5.5-4.3-9.9-9.8-9.9s-9.8,4.4-9.8,9.9
		C585.2,144.6,589.5,148.9,594.9,148.9z"/>
	<path class="st0" d="M996.3,88.9h-11.2V50.8h9.7l1.6,4.9c2.3-3.7,6.2-5.9,11.2-5.9c8.7,0,14,5.9,14,15.6v23.5h-11.2V68
		c0-5-2.5-7.9-6.8-7.9c-4.4,0-7.2,3.2-7.2,8.6L996.3,88.9L996.3,88.9z"/>
	<path class="st0" d="M687,148.1h5.3v9.9c0,0-7.6,0-7.7,0c-8.7,0-14.2-5.6-14.2-15.9v-33.3h11.2v11.2h9.8v9.2h-9.8v12.3
		C681.6,145.7,683.6,148.1,687,148.1L687,148.1z"/>
</g>
</svg>
